<?xml version="1.0" encoding="UTF-8" standalone="no"?>
<svg viewBox="0 0 16 16" style="display:inline;enable-background:new" version="1.0" id="svg11300" height="16" width="16" xmlns="http://www.w3.org/2000/svg" xmlns:svg="http://www.w3.org/2000/svg" xmlns:rdf="http://www.w3.org/1999/02/22-rdf-syntax-ns#" xmlns:cc="http://creativecommons.org/ns#" xmlns:dc="http://purl.org/dc/elements/1.1/">
  <metadata id="metadata11">
    <rdf:RDF>
      <cc:Work rdf:about="">
        <dc:format>image/svg+xml</dc:format>
        <dc:type rdf:resource="http://purl.org/dc/dcmitype/StillImage" />
      </cc:Work>
    </rdf:RDF>
  </metadata>
  <defs id="defs9" />
  <path id="rect43-3" style="fill:#3b82f6;fill-opacity:1;stroke-width:0.15236;marker:none" d="M 1.3417969 0 C 0.59849761 0 0 0.58740414 0 1.3164062 L 0 1.6230469 L 0 8 L 12 0 L 1.3417969 0 z M 12 0 L 7.9921875 6 L 16 8 L 16 1.6230469 L 16 1.3164062 C 16 0.58740414 15.401502 1.4802959e-16 14.658203 0 L 12 0 z M 16 8 L 4 15.988281 L 7.9921875 10 L 0 8 L 0 14.376953 L 0 14.683594 C 0 15.412597 0.59849761 16 1.3417969 16 L 14.658203 16 C 15.401502 16 16 15.412597 16 14.683594 L 16 14.376953 L 16 8 z " />
</svg>
